<svg width="1200" height="520" viewBox="0 0 1200 520" xmlns="http://www.w3.org/2000/svg" fill="none">
  <defs>
    <linearGradient id="g" x1="0" y1="0" x2="1" y2="1">
      <stop offset="0" stop-color="#5CE1E6"/>
      <stop offset="1" stop-color="#7AA2FF"/>
    </linearGradient>
    <filter id="shadow" x="-50%" y="-50%" width="200%" height="200%">
      <feDropShadow dx="0" dy="14" stdDeviation="10" flood-color="#000" flood-opacity="0.3"/>
    </filter>
  </defs>

  <rect width="1200" height="520" rx="24" fill="#0c1330"/>

  <g stroke="url(#g)" stroke-opacity=".4" stroke-width="2">
    <path d="M90 140 H1110"/>
    <path d="M90 260 H1110"/>
    <path d="M90 380 H1110"/>
  </g>

  <g font-family="Inter, sans-serif" font-size="16" fill="#e3e7f1">
    <g filter="url(#shadow)">
      <rect x="110" y="100" width="180" height="80" rx="14" fill="#0e1739" stroke="rgba(255,255,255,0.1)"/>
      <text x="200" y="146" text-anchor="middle">Project Setup</text>
    </g>
    <g filter="url(#shadow)">
      <rect x="330" y="100" width="180" height="80" rx="14" fill="#0e1739" stroke="rgba(255,255,255,0.1)"/>
      <text x="420" y="146" text-anchor="middle">Mobile Collection</text>
    </g>
    <g filter="url(#shadow)">
      <rect x="550" y="100" width="180" height="80" rx="14" fill="#0e1739" stroke="rgba(255,255,255,0.1)"/>
      <text x="640" y="146" text-anchor="middle">Uploads</text>
    </g>
    <g filter="url(#shadow)">
      <rect x="770" y="100" width="180" height="80" rx="14" fill="#0e1739" stroke="rgba(255,255,255,0.1)"/>
      <text x="860" y="146" text-anchor="middle">Verification</text>
    </g>
    <g filter="url(#shadow)">
      <rect x="990" y="100" width="180" height="80" rx="14" fill="#0e1739" stroke="rgba(255,255,255,0.1)"/>
      <text x="1080" y="146" text-anchor="middle">Registry</text>
    </g>

    <g stroke="url(#g)" stroke-width="3" stroke-linecap="round">
      <path d="M290 140 C 310 140, 320 140, 330 140"/>
      <path d="M510 140 C 530 140, 540 140, 550 140"/>
      <path d="M730 140 C 750 140, 760 140, 770 140"/>
      <path d="M950 140 C 970 140, 980 140, 990 140"/>
    </g>

    <g filter="url(#shadow)">
      <rect x="330" y="220" width="180" height="80" rx="14" fill="#0e1739" stroke="rgba(255,255,255,0.1)"/>
      <text x="420" y="266" text-anchor="middle">IPFS</text>
    </g>
    <g filter="url(#shadow)">
      <rect x="770" y="220" width="180" height="80" rx="14" fill="#0e1739" stroke="rgba(255,255,255,0.1)"/>
      <text x="860" y="266" text-anchor="middle">PostgreSQL</text>
    </g>

    <g filter="url(#shadow)">
      <rect x="550" y="340" width="180" height="80" rx="14" fill="#0e1739" stroke="rgba(255,255,255,0.1)"/>
      <text x="640" y="386" text-anchor="middle">ERC‑1155 Mint</text>
    </g>

    <g stroke="url(#g)" stroke-opacity=".8" stroke-width="2">
      <path d="M420 180 V 220"/>
      <path d="M860 180 V 220"/>
      <path d="M1080 180 C 1080 260, 640 260, 640 340"/>
      <path d="M420 300 C 420 340, 640 340, 640 340"/>
    </g>
  </g>
</svg>


